Zweedse Thriller
Mini Serie 10 afleveringen

Twee landen...een brug...een moord...

Wanneer op de Oresundbrug tussen Zweden en Denemarken een lijk gevonden wordt, dwingt deze spectaculaire moord de Zweedse en Deense politie tot een nauwe samenwerking. Gruwelijke gebeurtenissen blijven elkaar opvolgen...
De Deense agent Martin Rodhe(Kim Bodnia - The Killing, Those Who Kill) en de Zweedse Saga Nor'en (Sofia Helin - Beck) gaan de uitdaging met frisse tegenzin aan. Een uur lang onverwachte wendingen die leiden tot ultieme chaos in de noordelijke landen. En dit is nog maar het begin.

Swedish Thriller,
Two Country's ... A Bridge and A murder....

------------------------ Dutch Friends ------------------------
---------------------------------------------------------------
- Bezoek ook eens mijn vrienden op:  http://www.Film-Test.nl --
----- voor mijn Nederlandse Sync. ondertitels ---- en meer ----
------- http://www.Film-Test.nl ---- voor Films en meer -------
---------------------------------------------------------------

General:

Complete name                    : The Bridge\Part01.avi
Format                           : AVI
Format/Info                      : Audio Video Interleave
File size                        : 614 MiB
Duration                         : 57mn 31s
Overall bit rate                 : 1 493 Kbps

Video:

Format                           : MPEG-4 Visual
Format profile                   : Simple@L3
Format settings, BVOP            : No
Format settings, QPel            : No
Format settings, GMC             : No warppoints
Format settings, Matrix          : Default (H.263)
Codec ID                         : XVID
Codec ID/Hint                    : XviD
Duration                         : 57mn 31s
Bit rate                         : 1 034 Kbps
Width                            : 704 pixels
Height                           : 396 pixels
Display aspect ratio             : 16:9
Frame rate                       : 25.000 fps
Color space                      : YUV
Chroma subsampling               : 4:2:0
Bit depth                        : 8 bits
Scan type                        : Progressive
Compression mode                 : Lossy
Bits/(Pixel*Frame)               : 0.148
Stream size                      : 426 MiB (69%)
Writing library                  : XviD 1.1.2 (UTC 2006-11-01)

Audio:

Format                           : AC-3
Format/Info                      : Audio Coding 3
Mode extension                   : CM (complete main)
Codec ID                         : 2000
Duration                         : 57mn 31s
Bit rate mode                    : Constant
Bit rate                         : 448 Kbps
Channel(s)                       : 6 channels
Channel positions                : Front: L C R, Side: L R, LFE
Sampling rate                    : 48.0 KHz
Bit depth                        : 16 bits
Compression mode                 : Lossy
Stream size                      : 184 MiB (30%)
Alignment                        : Aligned on interleaves
Interleave, duration             : 32 ms (0.80 video frame)
Interleave, preload duration     : 416 ms

